<svg xmlns="http://www.w3.org/2000/svg" version="1.1" xmlns:xlink="http://www.w3.org/1999/xlink" xmlns:svgjs="http://svgjs.com/svgjs" width="512" height="512" x="0" y="0" viewBox="0 0 511.193 511.193" style="enable-background:new 0 0 512 512" xml:space="preserve" class=""><g><g xmlns="http://www.w3.org/2000/svg"><g><g id="XMLID_415_"><path d="m299.344 235.636-27.536-86.711c-2.997-9.44 1.89-19.579 11.143-23.113l32.067-12.248 17.835 12.315-6.162 23.234-13.921 5.317 22.195 69.894c3.124 9.837-2.318 20.343-12.154 23.467-9.8 3.111-20.331-2.282-23.467-12.155z" fill="#ffb69e" data-original="#ffb69e" class=""></path></g><g id="XMLID_414_"><path d="m387.129 106.025c-3.682-9.641-14.482-14.473-24.125-10.789l-47.986 18.329 11.673 35.549 49.649-18.964c9.641-3.684 14.471-14.484 10.789-24.125z" fill="#f05462" data-original="#f05462"></path></g><g><g id="XMLID_411_"><path d="m296.057 479.66c-12.991-3.416-20.753-16.716-17.338-29.707l23.932-91.017-23.932-91.017c-3.416-12.991 4.347-26.291 17.338-29.707 12.989-3.417 26.29 4.346 29.707 17.337l25.558 97.202c1.066 4.054 1.066 8.315 0 12.37l-25.558 97.202c-3.415 12.988-16.717 20.753-29.707 17.337z" fill="#ffb69e" data-original="#ffb69e" class=""></path></g><g id="XMLID_410_"><path d="m369.461 479.405c-12.851-3.909-20.1-17.496-16.19-30.347l14.14-95.347-39.521-78.077c-7.677-11.022-4.966-26.181 6.056-33.858 11.021-7.677 26.181-4.966 33.858 6.056l46.268 87.763c4.26 6.116 5.481 13.848 3.311 20.979l-17.576 106.641c-3.89 12.79-17.438 20.116-30.346 16.19z" fill="#ffb69e" data-original="#ffb69e" class=""></path></g><g><path d="m262.569 293.19c-2.84 6.531.556 13.949 6.886 15.426 30.808 7.187 110.245 25.718 141.032 32.9 6.389 1.491 12.66-3.713 13.001-10.787l8.702-188.751c1.09-23.639-14.95-44.648-38.04-49.826-.296-.066-.592-.133-.889-.199-22.818-5.117-46.057 6.685-55.385 28.129z" fill="#ff6473" data-original="#ff6473" class=""></path></g><path d="m449.492 33.067c-21.913-7.616-45.852 3.975-53.468 25.888s3.974 45.852 25.888 53.467c21.913 7.616 45.852-3.975 53.468-25.887 7.616-21.914-3.975-45.852-25.888-53.468z" fill="#ffb69e" data-original="#ffb69e" class=""></path></g><g><path d="m459.16 477.848c-4.846 0-8.773-3.928-8.773-8.773v-202.25c0-16.764 13.639-30.403 30.403-30.403s30.403 13.639 30.403 30.403v27.754c0 4.845-3.928 8.773-8.773 8.773s-8.773-3.928-8.773-8.773v-27.754c0-7.089-5.767-12.856-12.856-12.856s-12.856 5.767-12.856 12.856v202.25c-.001 4.845-3.929 8.773-8.775 8.773z" fill="#b05f3f" data-original="#b05f3f" class=""></path></g><g id="XMLID_406_"><path d="m454.912 254.8-57.337-38.927c-4.014-2.725-6.81-6.904-7.798-11.653l-6.801-32.677 15.829-17.003 20.713 9.158 5.307 25.501 51.08 34.678c8.539 5.797 10.761 17.418 4.964 25.957-5.805 8.552-17.429 10.756-25.957 4.966z" fill="#ffb69e" data-original="#ffb69e" class=""></path></g><g id="XMLID_405_"><path d="m419.518 163.699-9.823-47.197c-2.103-10.104-12-16.59-22.102-14.488-10.104 2.103-16.59 11.999-14.487 22.103l9.87 47.426z" fill="#f05462" data-original="#f05462"></path></g></g><g><g id="XMLID_400_"><path d="m18.074 228.438-17.716-90.033c-1.929-9.802 4.125-19.405 13.8-21.893l41.368-10.636 19.559 14.87-11.268 21.919-23.037 5.923 14.28 72.572c2.01 10.213-4.641 20.122-14.854 22.132-10.17 2.001-20.113-4.595-22.132-14.854z" fill="#ffb69e" data-original="#ffb69e" class=""></path></g><g id="XMLID_399_"><path d="m120.812 108.551c-2.592-10.082-12.866-16.153-22.947-13.561l-42.34 10.886 8.291 36.789 43.435-11.168c10.082-2.591 16.153-12.865 13.561-22.946z" fill="#4699f2" data-original="#4699f2"></path></g><g id="XMLID_398_"><path d="m42.723 480.464c-15.771.002-27.323-14.936-23.306-30.212l23.696-90.121-23.696-90.121c-3.382-12.863 4.304-26.032 17.167-29.414 12.865-3.382 26.032 4.303 29.414 17.166l25.306 96.245c1.056 4.014 1.056 8.233 0 12.248l-25.306 96.245c-2.843 10.81-12.599 17.963-23.275 17.964z" fill="#5f6e9b" data-original="#5f6e9b" class=""></path></g><g id="XMLID_397_"><path d="m118.999 479.415c-12.725-3.871-19.902-17.324-16.031-30.048l20.754-94.408-45.885-77.309c-7.601-10.914-4.917-25.923 5.997-33.525 10.913-7.601 25.923-4.917 33.525 5.996l52.565 86.899c4.218 6.056 5.426 13.712 3.279 20.773l-24.155 105.59c-3.853 12.662-17.267 19.921-30.049 16.032z" fill="#414b82" data-original="#414b82" class=""></path></g><path d="m152.489 107.593-37.835-13.112c-19.087-6.615-39.922 3.496-46.536 22.583l-48.5 139.968 71 27.325c19.39 6.719 40.555-3.552 47.275-22.942l37.18-107.286c6.614-19.086-3.497-39.922-22.584-46.536z" fill="#64afff" data-original="#64afff" class=""></path><g><path d="m191.708 480.464c-4.887 0-8.849-3.962-8.849-8.849v-203.988c0-16.908 13.756-30.664 30.664-30.664s30.664 13.756 30.664 30.664v27.992c0 4.887-3.962 8.849-8.849 8.849s-8.849-3.962-8.849-8.849v-27.992c0-7.15-5.817-12.966-12.966-12.966s-12.966 5.817-12.966 12.966v203.989c0 4.886-3.962 8.848-8.849 8.848z" fill="#b05f3f" data-original="#b05f3f" class=""></path></g><g id="XMLID_396_"><path d="m191.848 264.624-57.83-39.261c-4.048-2.748-6.869-6.963-7.865-11.753l-8.247-39.624 14.632-16.565 22.216 8.616 6.748 32.425 51.519 34.976c8.612 5.847 10.854 17.568 5.007 26.18-5.855 8.623-17.579 10.846-26.18 5.006z" fill="#ffb69e" data-original="#ffb69e" class=""></path></g><g id="XMLID_395_"><path d="m154.754 166.036-8.512-40.898c-2.121-10.192-12.104-16.732-22.292-14.612-10.191 2.121-16.733 12.101-14.612 22.292l8.568 41.167z" fill="#4699f2" data-original="#4699f2"></path></g><ellipse cx="165.661" cy="74.648" fill="#ffb69e" rx="41.592" ry="41.592" transform="matrix(.264 -.964 .964 .264 49.869 214.677)" data-original="#ffb69e" class=""></ellipse></g></g></g></svg>