<svg xmlns="http://www.w3.org/2000/svg" version="1.1" xmlns:xlink="http://www.w3.org/1999/xlink" xmlns:svgjs="http://svgjs.com/svgjs" width="512" height="512" x="0" y="0" viewBox="0 0 512 512" style="enable-background:new 0 0 512 512" xml:space="preserve" class=""><g><g xmlns="http://www.w3.org/2000/svg"><path d="m261.357 325.13h-30.905v-87.5c0-8.534 6.918-15.453 15.453-15.453 8.534 0 15.453 6.918 15.453 15.453v87.5z" fill="#f06292" data-original="#f06292" class=""></path><path d="m298.313 191.913h-21.455c-12.683 0-23 10.318-23 23v121.478c0 4.142 3.357 7.5 7.5 7.5s7.5-3.358 7.5-7.5v-121.478c0-4.412 3.589-8 8-8h21.455c4.143 0 7.5-3.358 7.5-7.5s-3.358-7.5-7.5-7.5z" fill="#3b7191" data-original="#3b7191" class=""></path><path d="m243.895 356.669h-39.584l27.99-27.99c2.929-2.929 2.929-7.678 0-10.606-2.928-2.93-7.677-2.929-10.606 0l-27.99 27.99v-39.583c0-4.142-3.358-7.5-7.5-7.5s-7.5 3.358-7.5 7.5v39.583l-27.99-27.99c-2.929-2.929-7.678-2.929-10.606 0-2.929 2.929-2.929 7.678 0 10.606l27.99 27.99h-39.583c-4.142 0-7.5 3.358-7.5 7.5s3.358 7.5 7.5 7.5h39.583l-27.99 27.99c-2.929 2.929-2.929 7.678 0 10.606 1.464 1.464 3.384 2.197 5.303 2.197s3.839-.732 5.303-2.197l27.99-27.99v39.584c0 4.142 3.358 7.5 7.5 7.5s7.5-3.358 7.5-7.5v-39.584l27.99 27.99c1.464 1.464 3.384 2.197 5.303 2.197s3.839-.732 5.303-2.197c2.929-2.929 2.929-7.678 0-10.606l-27.99-27.99h39.584c4.142 0 7.5-3.358 7.5-7.5s-3.358-7.5-7.5-7.5z" fill="#3b7191" data-original="#3b7191" class=""></path><path d="m170.752 280.838h-86.017c-10.51 0-19.061 8.551-19.061 19.061v92.045h30.906v-80.201h53.654z" fill="#ebad88" data-original="#ebad88" class=""></path><path d="m184.556 125.048h30.905v51.509h-30.905z" fill="#e8916f" transform="matrix(-1 0 0 -1 400.017 301.604)" data-original="#e8916f"></path><path d="m168.783 296.385h61.811v-109.814c0-17.069-13.837-30.905-30.905-30.905-17.069 0-30.905 13.837-30.905 30.905v109.814z" fill="#f06292" data-original="#f06292" class=""></path><path d="m199.689 133.208c17.069 0 30.905-13.837 30.905-30.905v-16.484c0-17.069-13.837-30.905-30.905-30.905-17.069 0-30.905 13.837-30.905 30.905v16.483c-.001 17.069 13.836 30.906 30.905 30.906z" fill="#ebad88" data-original="#ebad88" class=""></path><path d="m240.273 78.496-.027 28.941c-.013 14.236-11.558 25.77-25.794 25.77-2.836 0-5.135-2.299-5.135-5.135v-26.493c0-8.346-6.766-15.111-15.111-15.111h-30.566c-6.589 0-11.931-5.342-11.931-11.931 0-16.527 13.398-29.924 29.924-29.924h24.787c18.709-.001 33.871 15.175 33.853 33.883z" fill="#d67b42" data-original="#d67b42"></path><path d="m45.969 416.669h46.358c2.276 0 4.121-1.845 4.121-4.121v-28.845h-33.997c-11.379 0-20.604 9.225-20.604 20.604v8.241c.001 2.276 1.846 4.121 4.122 4.121z" fill="#be652b" data-original="#be652b" class=""></path><path d="m496.559 483.5h-481.118c-8.528 0-15.441-6.913-15.441-15.441 0-8.528 6.913-15.441 15.441-15.441h481.118c8.528 0 15.441 6.913 15.441 15.441 0 8.528-6.913 15.441-15.441 15.441z" fill="#ffd54f" data-original="#ffd54f"></path><path d="m496.547 452.618h-30.905c8.534 0 15.453 6.913 15.453 15.441s-6.919 15.441-15.453 15.441h30.905c8.534 0 15.453-6.913 15.453-15.441s-6.919-15.441-15.453-15.441z" fill="#ffc328" data-original="#ffc328"></path><path d="m131.133 250.231h68.555v-65.11c0-8.534 6.919-15.453 15.453-15.453s15.453 6.919 15.453 15.453v80.562c0 8.534-6.919 15.453-15.453 15.453h-84.008c-8.534 0-15.453-6.918-15.453-15.453s6.919-15.452 15.453-15.452z" fill="#ebad88" data-original="#ebad88" class=""></path><path d="m199.689 212.651v-27.53c0-8.534 6.919-15.453 15.453-15.453s15.453 6.919 15.453 15.453v27.53z" fill="#5297ba" data-original="#5297ba" class=""></path><path d="m186.205 275.573c-48.934 0-88.596 39.662-88.596 88.596s39.662 88.596 88.596 88.596 88.596-39.662 88.596-88.596-39.662-88.596-88.596-88.596zm0 146.286c-31.812 0-57.69-25.878-57.69-57.69s25.878-57.69 57.69-57.69 57.69 25.878 57.69 57.69-25.878 57.69-57.69 57.69z" fill="#5297ba" data-original="#5297ba" class=""></path><path d="m416.368 108.765h30.905v51.509h-30.905z" fill="#e8916f" transform="matrix(-1 0 0 -1 863.641 269.04)" data-original="#e8916f"></path><path d="m400.595 259.442h61.811v-89.153c0-17.069-13.837-30.905-30.905-30.905-17.069 0-30.905 13.837-30.905 30.905v89.153z" fill="#80deea" data-original="#80deea"></path><path d="m431.5 139.383c-5.631 0-10.906 1.514-15.453 4.145 9.235 5.344 15.453 15.323 15.453 26.76v89.153h30.905v-89.153c.001-17.068-13.836-30.905-30.905-30.905z" fill="#4dd0e1" data-original="#4dd0e1"></path><path d="m462.406 259.439v3.214c0 9.603-3.373 18.9-9.529 26.27-6.157 7.369-9.529 16.667-9.529 26.27v122.943h-30.905v-101.372c0-14.949-1.592-29.856-4.749-44.468l-7.098-32.857z" fill="#5297ba" data-original="#5297ba" class=""></path><path d="m431.489 117.029h.023c17.062 0 30.894-13.832 30.894-30.894v-16.447c0-17.062-13.832-30.894-30.894-30.894h-.023c-17.062 0-30.894 13.832-30.894 30.894v16.448c0 17.062 13.832 30.893 30.894 30.893z" fill="#ebad88" data-original="#ebad88" class=""></path><path d="m392.869 452.765h46.358c2.276 0 4.121-1.845 4.121-4.121v-28.845h-33.996c-11.379 0-20.604 9.225-20.604 20.604v8.241c0 2.276 1.845 4.121 4.121 4.121z" fill="#be652b" data-original="#be652b" class=""></path><path d="m472.091 50.619-.039 34.507c-.01 8.526-6.929 15.432-15.462 15.432-8.539 0-15.462-6.917-15.462-15.45 0-8.165-6.624-14.784-14.796-14.784h-8.636c-18.875 0-34.176-15.29-34.176-34.15 0-4.238 3.438-7.674 7.68-7.674h58.78c12.222 0 22.125 9.907 22.111 22.119z" fill="#d67b42" data-original="#d67b42"></path><path d="m449.981 28.5h-30.905c12.221 0 22.124 9.907 22.111 22.119l-.039 34.507c0 .055-.008.109-.008.164.099 8.448 6.975 15.268 15.452 15.268 8.532 0 15.452-6.906 15.462-15.432l.039-34.507c.012-12.212-9.891-22.119-22.112-22.119z" fill="#be652b" data-original="#be652b" class=""></path><path d="m313.657 183.688 58.058 36.456 34.624-55.14c4.538-7.227 14.077-9.408 21.304-4.869 7.227 4.538 9.408 14.077 4.869 21.304l-42.841 68.227c-4.538 7.227-14.077 9.408-21.304 4.869l-71.145-44.674c-7.227-4.538-9.408-14.077-4.869-21.304 4.538-7.228 14.077-9.408 21.304-4.869z" fill="#ebad88" data-original="#ebad88" class=""></path><g fill="#5297ba"><path d="m391.7 188.318 14.64-23.314c4.538-7.227 14.077-9.408 21.304-4.869s9.408 14.077 4.869 21.304l-14.64 23.314z" fill="#5297ba" data-original="#5297ba" class=""></path><ellipse cx="186.205" cy="364.169" rx="15.453" ry="15.453" transform="matrix(.383 -.924 .924 .383 -221.501 396.839)" fill="#5297ba" data-original="#5297ba" class=""></ellipse></g></g></g></svg>