<svg xmlns="http://www.w3.org/2000/svg" version="1.1" xmlns:xlink="http://www.w3.org/1999/xlink" xmlns:svgjs="http://svgjs.com/svgjs" width="512" height="512" x="0" y="0" viewBox="0 0 60 60" style="enable-background:new 0 0 512 512" xml:space="preserve" class=""><g><g xmlns="http://www.w3.org/2000/svg" id="Page-1" fill="none" fill-rule="evenodd"><g id="018---Homeless-Shelter" transform="translate(-1)"><g id="Icons" transform="translate(1 1)"><path id="Path" d="m49 4v11.8l-8-7.08v-4.72c.0032948-1.10320187.8967981-1.9967052 2-2h4c1.1032019.0032948 1.9967052.89679813 2 2z" fill="#ff9801" data-original="#ff9801"></path><path id="Path" d="m47 2h-3c1.1032019.0032948 1.9967052.89679813 2 2v9.145l3 2.655v-11.8c-.0032948-1.10320187-.8967981-1.9967052-2-2z" fill="#f57c00" data-original="#f57c00"></path><path id="Path" d="m58.25 27.99c-1.1019666 1.2366422-2.9951942 1.3527363-4.24.26l-24.01-21.24-24.01 21.24c-.80384758.7109585-1.92592523.9390637-2.94355716.5983906-1.01763193-.3406732-1.77621564-1.1983684-1.99-2.25-.21378435-1.0516317.14970958-2.1374321.95355716-2.8483906l26-23c1.1382134-1.00002943 2.8417866-1.00002943 3.98 0l9.01 7.97 8 7.08 8.99 7.95c1.2366422 1.1019666 1.3527363 2.9951942.26 4.24z" fill="#a0522d" data-original="#a0522d"></path><path id="Path" d="m57.99 23.75-8.99-7.95-8-7.08-9.01-7.97c-.9685392-.85155834-2.3716498-.99227144-3.49-.35.1744825.09867353.3386362.21458614.49.346l9.01 7.974 8 7.08 8.99 7.95c1.2366422 1.1019666 1.3527363 2.9951942.26 4.24-.219171.2406564-.4766476.4433939-.762.6 1.3343133.7884638 3.049579.4307571 3.957519-.825313s.7096423-2.9969804-.457519-4.016687z" fill="#783e22" data-original="#783e22"></path><path id="Path" d="m28.5 8.337-1.5-1.327" fill="#783e22" data-original="#783e22"></path><path id="Path" d="m30 40v14c0 2.209139-1.790861 4-4 4s-4-1.790861-4-4v-7h1c1.6568542 0 3-1.3431458 3-3-.0225925-1.6474054-1.3525946-2.9774075-3-3h-1v-1c0-2.209139 1.790861-4 4-4 2.1917042.0415348 3.9584652 1.8082958 4 4z" fill="#02a9f4" data-original="#02a9f4"></path><path id="Path" d="m26 36c-.5230938-.0010339-1.0412761.1009036-1.525.3 1.5026169.6214032 2.4940907 2.0742558 2.525 3.7v14c-.0032957 1.6269922-.9917334 3.08988-2.5 3.7 1.2316045.5024769 2.6325778.3585029 3.7362432-.3839629 1.1036653-.7424658 1.7650185-1.985875 1.7637568-3.3160371v-14c-.0415348-2.1917042-1.8082958-3.9584652-4-4z" fill="#0377bc" data-original="#0377bc"></path><path id="Path" d="m34 44c0 1.6568542 1.3431458 3 3 3h1v7c0 2.209139-1.790861 4-4 4s-4-1.790861-4-4v-14c0-2.209139 1.790861-4 4-4 2.1960983.0311703 3.9688297 1.8039017 4 4v1h-1c-1.6489584.0189088-2.9810912 1.3510416-3 3z" fill="#02a9f4" data-original="#02a9f4"></path><path id="Path" d="m37 41h1v-1c-.0311703-2.1960983-1.8039017-3.9688297-4-4-.5210397.0001131-1.0370383.102022-1.519.3 1.5054493.6168651 2.4969513 2.0732198 2.519 3.7v1h-1c-1.6489584.0189088-2.9810912 1.3510416-3 3 0 1.6568542 1.3431458 3 3 3h1v7c-.0032957 1.6269922-.9917334 3.08988-2.5 3.7 1.2316045.5024769 2.6325778.3585029 3.7362432-.3839629 1.1036653-.7424658 1.7650185-1.985875 1.7637568-3.3160371v-7h-1c-1.6568542 0-3-1.3431458-3-3 .0189088-1.6489584 1.3510416-2.9810912 3-3z" fill="#0377bc" data-original="#0377bc"></path><path id="Path" d="m36 26c.0023825.3524865-.0311235.7043-.1 1.05-.5048239 2.8632684-2.9925694 4.9507688-5.9 4.9507688s-5.3951761-2.0875004-5.9-4.9507688c-.0688765-.3457-.1023825-.6975135-.1-1.05 0-3.3137085 2.6862915-6 6-6s6 2.6862915 6 6z" fill="#ffe0b2" data-original="#ffe0b2" class=""></path><path id="Path" d="m30 20c-.5064496.0029108-1.0104803.0701149-1.5.2 2.6456983.6831127 4.4956841 3.0675388 4.5 5.8.0023825.3524865-.0311235.7043-.1 1.05-.4138279 2.3037269-2.1330173 4.1545906-4.4 4.737 1.6156159.4480562 3.345559.1875921 4.75762-.7163177 1.4120609-.9039098 2.3728706-2.3658912 2.64238-4.0206823.0688765-.3457.1023825-.6975135.1-1.05 0-3.3137085-2.6862915-6-6-6z" fill="#dfc49c" data-original="#dfc49c"></path><path id="Path" d="m44 36v7c0 2.209139-1.790861 4-4 4h-3c-1.6568542 0-3-1.3431458-3-3 .0189088-1.6489584 1.3510416-2.9810912 3-3h1v-1c-.0311703-2.1960983-1.8039017-3.9688297-4-4-2.209139 0-4 1.790861-4 4-.0415348-2.1917042-1.8082958-3.9584652-4-4-2.209139 0-4 1.790861-4 4v1h1c1.6474054.0225925 2.9774075 1.3525946 3 3 0 1.6568542-1.3431458 3-3 3h-3c-2.2070857-.0049493-3.9950507-1.7929143-4-4v-7c-.0016745-4.621786 3.500964-8.4919854 8.1-8.95.5048239 2.8632684 2.9925694 4.9507688 5.9 4.9507688s5.3951761-2.0875004 5.9-4.9507688c4.599036.4580146 8.1016745 4.328214 8.1 8.95z" fill="#60a917" data-original="#60a917" class=""></path><g fill="#549414"><path id="Path" d="m23 41h-1v-1c-.0008558-1.6208765.9765448-3.082041 2.475-3.7-.46692-.1967838-.9683081-.2987611-1.475-.3-2.209139 0-4 1.790861-4 4v1h1c1.6474054.0225925 2.9774075 1.3525946 3 3 0 1.6568542-1.3431458 3-3 3h3c1.6568542 0 3-1.3431458 3-3-.0225925-1.6474054-1.3525946-2.9774075-3-3z" fill="#549414" data-original="#549414" class=""></path><path id="Path" d="m27 32c.5070386-.0067268 1.0111324-.0783081 1.5-.213-2.2669827-.5824094-3.9861721-2.4332731-4.4-4.737-.9682899.0977586-1.9140915.353125-2.8.756.7806704 2.4924506 3.0881534 4.1902723 5.7 4.194z" fill="#549414" data-original="#549414" class=""></path><path id="Path" d="m35.9 27.05c-.0492443.2562898-.1160688.5088866-.2.756 3.2257509 1.4497436 5.3005391 4.6574444 5.3 8.194v7c0 2.209139-1.790861 4-4 4h3c2.209139 0 4-1.790861 4-4v-7c.0016745-4.621786-3.500964-8.4919854-8.1-8.95z" fill="#549414" data-original="#549414" class=""></path><path id="Path" d="m32.481 36.3c-.4691813-.196268-.9724245-.2982079-1.481-.3-.9222729.0036574-1.8144375.3286273-2.523.919.9434454.7471007 1.5023456 1.8777452 1.523 3.081.0001446-1.6223403.9801906-3.0839163 2.481-3.7z" fill="#549414" data-original="#549414" class=""></path></g><path id="Path" d="m59 51v2c0 2.7614237-2.2385763 5-5 5h-4c-2.7614237 0-5-2.2385763-5-5v-2c0-.5522847.4477153-1 1-1h12c.5522847 0 1 .4477153 1 1z" fill="#ff9801" data-original="#ff9801"></path><path id="Path" d="m58 50h-3c.5522847 0 1 .4477153 1 1v2c0 2.7614237-2.2385763 5-5 5h3c2.7614237 0 5-2.2385763 5-5v-2c0-.2652165-.1053568-.5195704-.2928932-.7071068s-.4418903-.2928932-.7071068-.2928932z" fill="#f57c00" data-original="#f57c00"></path><path id="Path" d="m53 48c.0016714.7393528-.2729499 1.452655-.77 2h-4.46c-.4970501-.547345-.7716714-1.2606472-.77-2 0-1.6568542 1.3431458-3 3-3 1.6543489.0060328 2.9939672 1.3456511 3 3z" fill="#ffdc00" data-original="#ffdc00"></path><path id="Path" d="m57 48c.0016714.7393528-.2729499 1.452655-.77 2h-4c.5330857-.5902011.8086023-1.3687349.7654223-2.1628717-.04318-.7941367-.401486-1.5382073-.9954223-2.0671283.547345-.4970501 1.2606472-.7716714 2-.77 1.6568542 0 3 1.3431458 3 3z" fill="#fec108" data-original="#fec108"></path><path id="Path" d="m17 45.64v10.36c-.0032948 1.1032019-.8967981 1.9967052-2 2h-12c-1.10320187-.0032948-1.9967052-.8967981-2-2v-12c.0032948-1.1032019.89679813-1.9967052 2-2h3v5c0 .5522847.44771525 1 1 1h4c.5522847 0 1-.4477153 1-1v-5h3c.3512598.0006233.6961604.0937465 1 .27v.73c.0013991.9722896.3568891 1.9107831 1 2.64z" fill="#ff9801" data-original="#ff9801"></path><path id="Path" d="m16 43v-.73c-.3038396-.1762535-.6487402-.2693767-1-.27h-3c.3512598.0006233.6961604.0937465 1 .27v.73c.0013991.9722896.3568891 1.9107831 1 2.64v10.36c-.0032948 1.1032019-.8967981 1.9967052-2 2h3c1.1032019-.0032948 1.9967052-.8967981 2-2v-10.36c-.6431109-.7292169-.9986009-1.6677104-1-2.64z" fill="#f57c00" data-original="#f57c00"></path><path id="Path" d="m4 48h3c-.55228475 0-1-.4477153-1-1v-5h-3v5c0 .5522847.44771525 1 1 1z" fill="#f57c00" data-original="#f57c00"></path><path id="Path" d="m12 42v5c0 .5522847-.4477153 1-1 1h-4c-.55228475 0-1-.4477153-1-1v-5z" fill="#a0522d" data-original="#a0522d"></path><path id="Path" d="m9 42v5c0 .5522847-.44771525 1-1 1h3c.5522847 0 1-.4477153 1-1v-5z" fill="#783e22" data-original="#783e22"></path></g><g id="Icons_copy" fill="#000"><g fill-rule="nonzero"><path id="Shape" d="m5 31c.97573431.0010358 1.9181994-.3546114 2.65-1l23.35-20.655 23.351 20.655c1.6568543 1.4635545 4.1864454 1.3068541 5.6499999-.3500001 1.4635546-1.6568542 1.3068543-4.1864453-.3499999-5.6499999l-8.651-7.652v-11.348c0-1.65685425-1.3431458-3-3-3h-4c-1.6568542 0-3 1.34314575-3 3v2.5l-7.351-6.5c-1.5181951-1.32509092-3.7818049-1.32509092-5.3 0l-26 23c-1.24840667 1.1009883-1.68450661 2.8600224-1.09498157 4.4166709.58952505 1.5566486 2.08144269 2.5855149 3.74598157 2.5833291zm38-26c0-.55228475.4477153-1 1-1h4c.5522847 0 1 .44771525 1 1v9.578l-6-5.308zm-39.328 20.5 26-23c.7621896-.66240769 1.8958104-.66240769 2.658 0l26 23c.5358984.4739128.7782595 1.1977247.6357882 1.8987827-.1424714.7010581-.6481303 1.2728548-1.3265001 1.5-.6783697.2271453-1.4263897.0751301-1.9622881-.3987827l-24.015-21.239c-.3781427-.33399489-.9458573-.33399489-1.324 0l-24.009 21.239c-.53589838.4746274-1.28429959.6273027-1.96328813.4005148s-1.18540989-.7985847-1.32850002-1.5c-.14309014-.7014153.09888974-1.4258875.63478815-1.9005148z" fill="#000000" data-original="#000000" class=""></path><path id="Shape" d="m59 50h-.143c.4140664-1.5582983-.1534605-3.2124159-1.436993-4.1882688-1.2835325-.9758528-3.029173-1.080406-4.420007-.2647312-1.3894012-.8334954-3.1462953-.7370244-4.4360842.243585-1.2897888.9806095-1.8525371 2.6477322-1.4209158 4.209415h-.143c-1.1045695 0-2 .8954305-2 2v2c.0033074 3.3123376 2.6876624 5.9966926 6 6h4c3.3123376-.0033074 5.9966926-2.6876624 6-6v-2c0-1.1045695-.8954305-2-2-2zm-2-1c-.0008366.3517608-.0954162.6969419-.274 1h-1.869c.2796072-.9844141.1460014-2.0402614-.37-2.924.1668914-.0478862.3393933-.073442.513-.076 1.1045695 0 2 .8954305 2 2zm-8 0c.0023703-.7899711.4695149-1.5045297 1.1921851-1.8236027.7226703-.3190731 1.5654433-.1828688 2.1508149.3476027.4222111.3737894.6618352.9121229.657 1.476-.0008366.3517608-.0954162.6969419-.274 1h-3.452c-.1785838-.3030581-.2731634-.6482392-.274-1zm10 5c0 2.209139-1.790861 4-4 4h-4c-2.209139 0-4-1.790861-4-4v-2h12z" fill="#000000" data-original="#000000" class=""></path><path id="Shape" d="m4 60h12c1.6568542 0 3-1.3431458 3-3v-8.424c.6298984.2789669 1.311092.4233799 2 .424h1v6c-.0062173 2.1566753 1.3751502 4.0727751 3.423267 4.7484261 2.0481169.675651 4.2984577-.0423886 5.576733-1.7794261 1.2782753 1.7370375 3.5286161 2.4550771 5.576733 1.7794261 2.0481168-.675651 3.4294843-2.5917508 3.423267-4.7484261v-6h1c2.7600532-.0033061 4.9966939-2.2399468 5-5v-7c.0188074-4.762442-3.3390671-8.8707029-8.01-9.8 0-.068.01-.135.01-.2 0-3.8659932-3.1340068-7-7-7s-7 3.1340068-7 7c0 .069.008.136.01.2-4.6709329.9292971-8.0288074 5.037558-8.01 9.8v5h-12c-1.65685425 0-3 1.3431458-3 3v12c0 1.6568542 1.34314575 3 3 3zm23-2c-1.6568542 0-3-1.3431458-3-3v-6c2.209139 0 4-1.790861 4-4-.0290744-2.1969833-1.8030167-3.9709256-4-4 0-1.6568542 1.3431458-3 3-3 1.6393359.0415486 2.9584514 1.3606641 3 3v14c0 1.6568542-1.3431458 3-3 3zm11-3c0 1.6568542-1.3431458 3-3 3s-3-1.3431458-3-3v-14c0-1.6568542 1.3431458-3 3-3 1.6478483.0215432 2.9784568 1.3521517 3 3-2.1969833.0290744-3.9709256 1.8030167-4 4 0 2.209139 1.790861 4 4 4zm-7-33c2.7614237 0 5 2.2385763 5 5s-2.2385763 5-5 5-5-2.2385763-5-5c.0033061-2.7600532 2.2399468-4.9966939 5-5zm-13 15c-.0129005-3.7860242 2.6430243-7.0571065 6.351-7.822.9441851 2.8726218 3.6261876 4.8142507 6.65 4.8142507s5.7058149-1.9416289 6.65-4.8142507c3.7071803.7657205 6.3620946 4.0365883 6.349 7.822v7c0 1.6568542-1.3431458 3-3 3h-3c-1.1045695 0-2-.8954305-2-2 .0145372-1.0984917.9015083-1.9854628 2-2h3c.5522847 0 1-.4477153 1-1s-.4477153-1-1-1h-1c-.0360805-2.7463399-2.2536601-4.9639195-5-5-1.5884546.0038733-3.0798479.7649853-4.015 2.049-1.2676276-1.7466766-3.5182697-2.4746591-5.5686953-1.8012249-2.0504257.6734342-3.4311583 2.5940919-3.4163047 4.7522249h-1c-.5522847 0-1 .4477153-1 1s.4477153 1 1 1h3c1.0928189.027866 1.972134.9071811 2 2 0 1.1045695-.8954305 2-2 2h-3c-1.6568542 0-3-1.3431458-3-3zm-6 7v4h-4v-4zm-9 1c0-.5522847.44771525-1 1-1h2v4c0 1.1045695.8954305 2 2 2h4c1.1045695 0 2-.8954305 2-2v-4h2c.0032438 1.071808.3541446 2.1136324 1 2.969v10.031c0 .5522847-.4477153 1-1 1h-12c-.55228475 0-1-.4477153-1-1z" fill="#000000" data-original="#000000" class=""></path></g><path id="Path" d="m6 56c.55228475 0 1-.4477153 1-1v-1c0-.5522847-.44771525-1-1-1s-1 .4477153-1 1v1c0 .5522847.44771525 1 1 1z" fill="#000000" data-original="#000000" class=""></path><path id="Path" d="m10 56c.5522847 0 1-.4477153 1-1v-1c0-.5522847-.4477153-1-1-1-.55228475 0-1 .4477153-1 1v1c0 .5522847.44771525 1 1 1z" fill="#000000" data-original="#000000" class=""></path></g></g></g></g></svg>